<svg xmlns="http://www.w3.org/2000/svg" xmlns:xlink="http://www.w3.org/1999/xlink" version="1.1" width="256" height="256" viewBox="0 0 256 256" xml:space="preserve">

<defs>
</defs>
<g style="stroke: none; stroke-width: 0; stroke-dasharray: none; stroke-linecap: butt; stroke-linejoin: miter; stroke-miterlimit: 10; fill: none; fill-rule: nonzero; opacity: 1;" transform="translate(1.4065934065934016 1.4065934065934016) scale(2.81 2.81)" >
	<path d="M 29.31 51.247 c -0.311 0 -0.61 -0.145 -0.803 -0.404 l -5.99 -8.066 v 7.47 c 0 0.553 -0.448 1 -1 1 s -1 -0.447 -1 -1 V 39.753 c 0 -0.431 0.276 -0.814 0.686 -0.949 c 0.407 -0.134 0.859 0.007 1.117 0.353 l 5.99 8.066 v -7.47 c 0 -0.552 0.448 -1 1 -1 s 1 0.448 1 1 v 10.494 c 0 0.432 -0.276 0.814 -0.686 0.949 C 29.521 51.23 29.415 51.247 29.31 51.247 z" style="stroke: none; stroke-width: 1; stroke-dasharray: none; stroke-linecap: butt; stroke-linejoin: miter; stroke-miterlimit: 10; fill: rgb(0,0,0); fill-rule: nonzero; opacity: 1;" transform=" matrix(1 0 0 1 0 0) " stroke-linecap="round" />
	<path d="M 40.161 46 c 0.552 0 1 -0.448 1 -1 s -0.448 -1 -1 -1 h -4.293 v -3.247 h 4.293 c 0.552 0 1 -0.448 1 -1 s -0.448 -1 -1 -1 h -5.293 c -0.552 0 -1 0.448 -1 1 v 10.494 c 0 0.553 0.448 1 1 1 h 5.293 c 0.552 0 1 -0.447 1 -1 s -0.448 -1 -1 -1 h -4.293 V 46 H 40.161 z" style="stroke: none; stroke-width: 1; stroke-dasharray: none; stroke-linecap: butt; stroke-linejoin: miter; stroke-miterlimit: 10; fill: rgb(0,0,0); fill-rule: nonzero; opacity: 1;" transform=" matrix(1 0 0 1 0 0) " stroke-linecap="round" />
	<path d="M 54.438 51.247 c -0.43 0 -0.814 -0.275 -0.95 -0.687 l -2.51 -7.614 l -2.509 7.614 c -0.141 0.425 -0.514 0.713 -0.995 0.686 c -0.447 -0.02 -0.827 -0.335 -0.929 -0.771 L 44.098 39.98 c -0.125 -0.538 0.208 -1.076 0.747 -1.201 c 0.537 -0.127 1.076 0.209 1.201 0.747 l 1.639 7.026 l 2.344 -7.112 c 0.136 -0.41 0.519 -0.687 0.95 -0.687 s 0.814 0.277 0.95 0.687 l 2.345 7.113 l 1.639 -7.027 c 0.125 -0.538 0.656 -0.875 1.201 -0.747 c 0.537 0.125 0.872 0.663 0.746 1.201 l -2.447 10.495 c -0.102 0.436 -0.481 0.751 -0.929 0.771 C 54.468 51.247 54.453 51.247 54.438 51.247 z" style="stroke: none; stroke-width: 1; stroke-dasharray: none; stroke-linecap: butt; stroke-linejoin: miter; stroke-miterlimit: 10; fill: rgb(0,0,0); fill-rule: nonzero; opacity: 1;" transform=" matrix(1 0 0 1 0 0) " stroke-linecap="round" />
	<path d="M 64.859 51.247 h -3.915 c -0.553 0 -1 -0.447 -1 -1 s 0.447 -1 1 -1 h 3.915 c 0.896 0 1.624 -0.729 1.624 -1.623 c 0 -0.896 -0.729 -1.624 -1.624 -1.624 h -1.291 c -1.998 0 -3.624 -1.625 -3.624 -3.624 s 1.626 -3.624 3.624 -3.624 h 3.023 c 0.553 0 1 0.448 1 1 s -0.447 1 -1 1 h -3.023 c -0.896 0 -1.624 0.729 -1.624 1.624 S 62.673 44 63.568 44 h 1.291 c 1.998 0 3.624 1.625 3.624 3.624 C 68.483 49.622 66.857 51.247 64.859 51.247 z" style="stroke: none; stroke-width: 1; stroke-dasharray: none; stroke-linecap: butt; stroke-linejoin: miter; stroke-miterlimit: 10; fill: rgb(0,0,0); fill-rule: nonzero; opacity: 1;" transform=" matrix(1 0 0 1 0 0) " stroke-linecap="round" />
	<path d="M 86.711 32.4 C 81.2 14.134 64.146 1.43 45 1.43 C 25.854 1.43 8.8 14.134 3.289 32.4 C 1.411 32.817 0 34.49 0 36.492 v 17.016 c 0 2.002 1.411 3.675 3.289 4.092 C 8.8 75.866 25.854 88.57 45 88.57 c 19.146 0 36.2 -12.704 41.711 -30.97 C 88.589 57.183 90 55.51 90 53.508 V 36.492 C 90 34.49 88.589 32.817 86.711 32.4 z M 5.413 32.295 c 1.423 -4.437 3.562 -8.519 6.269 -12.129 h 13.753 c -1.353 3.635 -2.418 7.709 -3.142 12.129 H 5.413 z M 27.611 20.166 H 44 v 12.129 H 24.319 C 25.069 27.858 26.192 23.776 27.611 20.166 z M 46 3.478 c 6.099 0.546 11.707 6.057 15.55 14.688 H 46 V 3.478 z M 44 18.166 H 28.45 C 32.294 9.535 37.903 4.024 44 3.478 V 18.166 z M 46 20.166 h 16.39 c 1.418 3.611 2.541 7.693 3.291 12.129 H 46 V 20.166 z M 67.706 32.295 c -0.724 -4.401 -1.811 -8.479 -3.195 -12.129 h 13.807 c 2.707 3.61 4.845 7.693 6.268 12.129 H 67.706 z M 76.713 18.166 H 63.702 c -2.656 -6.212 -6.2 -11.021 -10.232 -13.856 C 62.588 6.225 70.764 11.173 76.713 18.166 z M 36.328 4.356 c -4.004 2.827 -7.485 7.595 -10.096 13.809 H 13.286 C 19.191 11.225 27.291 6.302 36.328 4.356 z M 84.586 57.705 c -1.423 4.437 -3.561 8.519 -6.268 12.13 H 64.565 c 1.353 -3.635 2.418 -7.709 3.142 -12.13 H 84.586 z M 62.39 69.835 H 46 v -12.13 h 19.681 C 64.931 62.142 63.808 66.224 62.39 69.835 z M 44 86.522 c -6.097 -0.546 -11.705 -6.057 -15.55 -14.687 H 44 V 86.522 z M 46 71.835 h 15.55 c -3.844 8.63 -9.453 14.141 -15.55 14.687 V 71.835 z M 44 69.835 H 27.611 c -1.419 -3.611 -2.541 -7.693 -3.292 -12.13 H 44 V 69.835 z M 22.292 57.705 c 0.725 4.421 1.79 8.495 3.142 12.13 H 11.682 c -2.707 -3.611 -4.845 -7.693 -6.269 -12.13 H 22.292 z M 13.286 71.835 h 12.945 c 2.611 6.214 6.092 10.982 10.096 13.809 C 27.291 83.698 19.191 78.776 13.286 71.835 z M 53.672 85.644 c 4.004 -2.827 7.485 -7.595 10.096 -13.809 h 12.945 C 70.808 78.776 62.709 83.698 53.672 85.644 z M 88 53.508 c 0 1.212 -0.985 2.197 -2.197 2.197 H 4.197 C 2.985 55.705 2 54.72 2 53.508 V 36.492 c 0 -1.211 0.985 -2.197 2.197 -2.197 h 81.606 c 1.212 0 2.197 0.986 2.197 2.197 V 53.508 z" style="stroke: none; stroke-width: 1; stroke-dasharray: none; stroke-linecap: butt; stroke-linejoin: miter; stroke-miterlimit: 10; fill: rgb(0,0,0); fill-rule: nonzero; opacity: 1;" transform=" matrix(1 0 0 1 0 0) " stroke-linecap="round" />
</g>
</svg>